<svg width="21" height="21" viewBox="0 0 21 21" fill="none" xmlns="http://www.w3.org/2000/svg">
<g clip-path="url(#clip0_467_1401)">
<path fill-rule="evenodd" clip-rule="evenodd" d="M9.25877 15.0405C9.25943 15.0413 9.25943 15.0425 9.25877 15.0433V15.0433C9.25811 15.0441 9.25811 15.0453 9.25877 15.0461L9.90839 15.8039C10.2678 16.2232 10.8506 16.2232 11.21 15.8039L18.1191 7.74396C18.4786 7.32465 18.4786 6.64481 18.1191 6.22549V6.22549C17.7597 5.80618 17.1769 5.80618 16.8175 6.2255L11.2124 12.7642C10.853 13.1835 10.2702 13.1835 9.91079 12.7642L3.95507 5.81641C3.59563 5.39709 3.01286 5.39709 2.65342 5.81641V5.81641C2.29399 6.23572 2.29399 6.91556 2.65342 7.33487L9.25877 15.0405Z" fill="black"/>
</g>
<defs>
<clipPath id="clip0_467_1401">
<rect width="21" height="21" fill="white"/>
</clipPath>
</defs>
</svg>
