<svg width="59" height="72" viewBox="0 0 59 72" fill="none" xmlns="http://www.w3.org/2000/svg">
<path d="M39.3511 15.2174L46.143 36.5633L46.1472 36.5619L46.1484 36.5656C46.3501 37.1938 47.531 37.3764 48.7859 36.9734C50.0353 36.5722 50.8872 35.7419 50.6956 35.1147L43.1194 11.3006C42.1921 8.38634 38.2757 7.89767 36.6608 10.4947L29.6466 21.7748L24.9623 11.3441C23.6295 8.37636 19.3506 8.57664 18.3008 11.6559L10.3195 35.0679L10.3236 35.0693L10.3184 35.0839C10.1049 35.7082 10.9438 36.5604 12.1921 36.9873C13.4404 37.4143 14.6255 37.2543 14.839 36.63C14.846 36.6096 14.8518 36.5889 14.8566 36.5681L21.8454 16.0677L26.2068 25.7795C27.3824 28.3972 31.0044 28.6406 32.5196 26.2037L39.3511 15.2174Z" fill="black"/>
<path fill-rule="evenodd" clip-rule="evenodd" d="M41.8018 34.0745C37.0978 34.7743 30.3995 35.9069 25.4909 37.0496C23.0566 37.6164 20.9353 38.2132 19.7403 38.8004C19.4367 38.9496 19.1245 39.1303 18.871 39.3531C18.6515 39.5459 18.2497 39.9687 18.2537 40.611C18.2581 41.3123 18.73 41.7327 19.0228 41.925C19.3315 42.1279 19.7073 42.2641 20.0787 42.3664C22.7794 43.1105 26.283 43.2845 29.3758 43.4381C30.1864 43.4784 30.9691 43.5173 31.7014 43.5646C33.5371 43.6833 35.0332 43.85 36.0518 44.1631C36.5601 44.3193 36.8434 44.4817 36.9835 44.6074C37.0848 44.6982 37.0884 44.7408 37.0884 44.7985C37.0884 45.0165 36.9921 45.3963 36.6584 45.959C36.3339 46.5062 35.8384 47.1369 35.1802 47.8313C33.865 49.2188 32.0026 50.7544 29.8704 52.2597C25.5947 55.2783 20.4226 58.0442 16.786 59.1892L16.7893 59.1998C16.0669 59.4616 15.6236 60.1627 15.7954 60.7829C15.9703 61.4139 16.7157 61.7223 17.4604 61.4717C17.4738 61.4672 17.4871 61.4625 17.5003 61.4577L17.5036 61.4682C21.455 60.224 26.8521 57.3153 31.2484 54.2115C33.4523 52.6556 35.4517 51.018 36.9143 49.4749C37.645 48.704 38.2674 47.93 38.7135 47.1776C39.1505 46.4407 39.4776 45.6259 39.4776 44.7985C39.4776 43.9855 39.1255 43.3191 38.5789 42.8288C38.0711 42.3733 37.4143 42.0823 36.7538 41.8793C35.4348 41.4739 33.6787 41.2982 31.8556 41.1803C31.0282 41.1268 30.1785 41.0841 29.3237 41.0411C26.8622 40.9172 24.3562 40.7911 22.2114 40.3999C23.1958 40.0807 24.4977 39.734 26.0327 39.3767C30.8818 38.2477 37.5654 37.1184 42.2515 36.4232L42.2507 36.4177C42.9239 36.2592 43.393 35.6703 43.3154 35.0521C43.2358 34.4179 42.6102 33.9854 41.901 34.0607C41.8915 34.0622 41.8818 34.0627 41.8722 34.0641C41.8586 34.0658 41.845 34.0677 41.8313 34.0698C41.8214 34.0713 41.8116 34.0729 41.8018 34.0745ZM20.448 41.148L20.4504 41.1459C20.4377 41.159 20.4346 41.1598 20.448 41.148Z" fill="black"/>
<path fill-rule="evenodd" clip-rule="evenodd" d="M5.97314 0C2.67426 0 0 2.67426 0 5.97314V65.5132C0 68.8121 2.67427 71.4863 5.97314 71.4863H52.5636C55.8625 71.4863 58.5367 68.8121 58.5367 65.5132V5.97314C58.5367 2.67427 55.8625 0 52.5636 0H5.97314ZM52.5636 3.58388H5.97314C4.65359 3.58388 3.58388 4.65359 3.58388 5.97314V65.5132C3.58388 66.8327 4.65359 67.9024 5.97314 67.9024H52.5636C53.8832 67.9024 54.9529 66.8327 54.9529 65.5132V5.97314C54.9529 4.65359 53.8832 3.58388 52.5636 3.58388Z" fill="black"/>
</svg>
