<svg width="15" height="15" viewBox="0 0 15 15" fill="none" xmlns="http://www.w3.org/2000/svg">
<g clip-path="url(#clip0_1_9372)">
<path d="M5.1123 12.3475L0.612305 13.6075L1.8723 9.10756L10.1123 0.907564C10.2054 0.812318 10.3167 0.736639 10.4394 0.684972C10.5622 0.633304 10.6941 0.606689 10.8273 0.606689C10.9605 0.606689 11.0924 0.633304 11.2152 0.684972C11.3379 0.736639 11.4492 0.812318 11.5423 0.907564L13.3123 2.68756C13.406 2.78052 13.4804 2.89113 13.5312 3.01298C13.582 3.13484 13.6081 3.26555 13.6081 3.39756C13.6081 3.52957 13.582 3.66028 13.5312 3.78214C13.4804 3.904 13.406 4.0146 13.3123 4.10756L5.1123 12.3475Z" stroke="black" stroke-linecap="round" stroke-linejoin="round"/>
</g>
<defs>
<clipPath id="clip0_1_9372">
<rect width="14" height="14" fill="white" transform="translate(0.112305 0.107544)"/>
</clipPath>
</defs>
</svg>
