<svg width="15" height="15" viewBox="0 0 15 15" fill="none" xmlns="http://www.w3.org/2000/svg">
<g clip-path="url(#clip0_358_2920)">
<path d="M5.26562 12.2643L0.765625 13.5243L2.02562 9.02431L10.2656 0.824312C10.3587 0.729066 10.47 0.653387 10.5927 0.60172C10.7155 0.550052 10.8474 0.523438 10.9806 0.523438C11.1138 0.523438 11.2457 0.550052 11.3685 0.60172C11.4912 0.653387 11.6025 0.729066 11.6956 0.824312L13.4656 2.60431C13.5593 2.69727 13.6337 2.80788 13.6845 2.92973C13.7353 3.05159 13.7614 3.1823 13.7614 3.31431C13.7614 3.44632 13.7353 3.57703 13.6845 3.69889C13.6337 3.82075 13.5593 3.93135 13.4656 4.02431L5.26562 12.2643Z" stroke="black" stroke-linecap="round" stroke-linejoin="round"/>
</g>
<defs>
<clipPath id="clip0_358_2920">
<rect width="14" height="14" fill="white" transform="translate(0.265625 0.0234375)"/>
</clipPath>
</defs>
</svg>
