<svg width="15" height="15" viewBox="0 0 15 15" fill="none" xmlns="http://www.w3.org/2000/svg">
<g clip-path="url(#clip0_358_2917)">
<path d="M4.26754 9.78894C3.55348 10.3498 2.73389 10.7613 1.85754 10.9989C1.76101 11.034 1.67761 11.0979 1.61868 11.1819C1.55974 11.266 1.52812 11.3662 1.52812 11.4689C1.52812 11.5716 1.55974 11.6718 1.61868 11.7559C1.67761 11.84 1.76101 11.9039 1.85754 11.9389C8.77754 14.7789 13.1775 10.3889 12.5075 5.51894L13.6275 3.19894H12.3275C10.7075 1.20894 6.40754 1.30894 7.11754 5.54894C7.11754 5.54894 4.81754 5.95894 1.87754 3.06894C1.80953 3.0018 1.7237 2.95555 1.63022 2.93568C1.53674 2.91581 1.43953 2.92314 1.35009 2.95681C1.26065 2.99048 1.18273 3.04908 1.12556 3.12567C1.0684 3.20225 1.03438 3.29362 1.02753 3.38894C0.716666 4.66679 0.872238 6.01364 1.46624 7.18697C2.06024 8.3603 3.05363 9.28301 4.26754 9.78894Z" stroke="black" stroke-linecap="round" stroke-linejoin="round"/>
</g>
<defs>
<clipPath id="clip0_358_2917">
<rect width="14" height="14" fill="white" transform="translate(0.265625 0.388672)"/>
</clipPath>
</defs>
</svg>
