<svg width="15" height="13" viewBox="0 0 15 13" fill="none" xmlns="http://www.w3.org/2000/svg">
<path d="M4.39644 8.84362C3.68238 9.40449 2.86279 9.816 1.98644 10.0536C1.88991 10.0887 1.80651 10.1526 1.74758 10.2366C1.68864 10.3207 1.65702 10.4209 1.65702 10.5236C1.65702 10.6263 1.68864 10.7265 1.74758 10.8106C1.80651 10.8947 1.88991 10.9586 1.98644 10.9936C8.90644 13.8336 13.3064 9.4436 12.6364 4.57362L13.7564 2.25362H12.4564C10.8364 0.263626 6.53644 0.363626 7.24644 4.60362C7.24644 4.60362 4.94644 5.01362 2.00644 2.12362C1.93843 2.05648 1.8526 2.01023 1.75912 1.99036C1.66564 1.97049 1.56843 1.97782 1.47899 2.01149C1.38955 2.04516 1.31164 2.10376 1.25447 2.18035C1.1973 2.25693 1.16329 2.3483 1.15644 2.44362C0.845573 3.72147 1.00114 5.06832 1.59514 6.24165C2.18914 7.41498 3.18253 8.33769 4.39644 8.84362Z" stroke="black" stroke-linecap="round" stroke-linejoin="round"/>
</svg>
